<svg id="Layer_1" data-name="Layer 1" xmlns="http://www.w3.org/2000/svg" viewBox="0 0 84.98 84.98"><defs><style>.cls-1{fill:#215a99;}</style></defs><title>Dashboard Design</title><path class="cls-1" d="M42.66,84.4a42,42,0,1,1,42-42A42,42,0,0,1,42.66,84.4Zm0-83a41,41,0,1,0,41,41A41,41,0,0,0,42.66,1.42Z"/><path class="cls-1" d="M61.68,63.35H24.06A3.07,3.07,0,0,1,21,60.29V27.8a3.07,3.07,0,0,1,3.06-3.06H61.68a3.07,3.07,0,0,1,3.06,3.06V60.29A3.07,3.07,0,0,1,61.68,63.35ZM24.06,25.74A2.07,2.07,0,0,0,22,27.8V60.29a2.07,2.07,0,0,0,2.06,2.06H61.68a2.07,2.07,0,0,0,2.06-2.06V27.8a2.07,2.07,0,0,0-2.06-2.06H24.06ZM62.18,60.79H23.56V31.57H62.18V60.79Zm-37.62-1H61.18V32.57H24.56V59.79ZM60,30.86a2.21,2.21,0,1,1,2.21-2.21A2.21,2.21,0,0,1,60,30.86Zm0-3.42a1.21,1.21,0,1,0,1.21,1.21A1.21,1.21,0,0,0,60,27.45Zm-4.7,3.42a2.21,2.21,0,1,1,2.21-2.21A2.21,2.21,0,0,1,55.27,30.86Zm0-3.42a1.21,1.21,0,1,0,1.21,1.21A1.21,1.21,0,0,0,55.27,27.45Zm-4.7,3.42a2.21,2.21,0,1,1,2.21-2.21A2.21,2.21,0,0,1,50.56,30.86Zm0-3.42a1.21,1.21,0,1,0,1.21,1.21A1.21,1.21,0,0,0,50.56,27.45Z"/><path class="cls-1" d="M41.46,42.16V41.61c0-1,0-2,0-3,0-.66,0-1.31,0-2V36.23l0.43-.06a7.75,7.75,0,0,1,1.91,0l0.44,0.05v0.44q0,2.06,0,4.12v1.34l-0.52,0a13.69,13.69,0,0,0-1.73,0Zm1-5c0,0.5,0,1,0,1.51,0,0.82,0,1.64,0,2.45h0.79v-0.3q0-1.83,0-3.66A6.71,6.71,0,0,0,42.48,37.12Z"/><path class="cls-1" d="M37.14,43.48L37,43c-0.27-.68-0.55-1.36-0.83-2-0.35-.85-0.71-1.69-1-2.55L34.93,38l0.44-.19c0.55-.24,1.09-0.47,1.65-0.68L37.46,37l0.19,0.44c0.66,1.52,1.29,3.06,1.91,4.6l0.21,0.51-0.53.15a7.53,7.53,0,0,0-.92.35c-0.24.1-.48,0.21-0.72,0.29ZM36.2,38.53c0.27,0.69.56,1.38,0.85,2.07,0.22,0.53.44,1.06,0.66,1.59l0.21-.09,0.51-.22c-0.5-1.22-1-2.44-1.51-3.65Z"/><path class="cls-1" d="M48.6,43.48l-0.46-.17c-0.25-.09-0.5-0.2-0.74-0.3s-0.59-.25-0.9-0.36L46,42.48l0.2-.5c0.62-1.53,1.25-3.06,1.91-4.58L48.28,37l0.44,0.15c0.55,0.19,1.08.42,1.61,0.65L50.77,38l-0.12.47c-0.33.88-.7,1.75-1.06,2.61-0.28.66-.55,1.31-0.81,2Zm-1.29-1.59,0.48,0.2L48,42.19c0.21-.51.42-1,0.63-1.53,0.3-.71.59-1.42,0.88-2.13l-0.71-.29C48.31,39.45,47.81,40.67,47.31,41.89Z"/><path class="cls-1" d="M33.72,46.46l-0.35-.36c-0.64-.65-1.28-1.29-1.92-1.94l-1.53-1.53-0.28-.28L29.85,42a6.12,6.12,0,0,1,1.27-1.34l0.36-.31,0.4,0.28c0.51,0.53,1,1.05,1.55,1.57s1.3,1.29,1.92,2l0.36,0.4-0.42.33a8.81,8.81,0,0,0-.85.81l-0.38.39Zm-2.79-4.23,1.22,1.22L33.73,45h0c0.17-.18.35-0.37,0.54-0.55-0.5-.53-1-1-1.54-1.55s-0.84-.83-1.25-1.25A5.83,5.83,0,0,0,30.93,42.24Z"/><path class="cls-1" d="M52,46.48l-0.35-.39c-0.39-.43-0.82-0.84-1.24-1.24L50,44.49,51.5,43q1.18-1.18,2.37-2.36l0.29-.29,0.34,0.23A5.38,5.38,0,0,1,55.88,42l0.23,0.34-0.29.29-2.14,2.15Zm-0.53-2L52,45l1-1,1.83-1.84a4.58,4.58,0,0,0-.55-0.55l-2.05,2Z"/><path class="cls-1" d="M31.76,50.52l-2-.83-3.1-1.29-0.44-.19,0.17-.45c0.21-.56.44-1.11,0.68-1.65l0.19-.43,0.44,0.16c0.89,0.33,1.77.7,2.65,1.07,0.64,0.27,1.28.54,1.93,0.79l0.44,0.17-0.15.45c-0.09.27-.21,0.54-0.32,0.8a6.48,6.48,0,0,0-.33.84Zm-4.27-2.85,2.65,1.1,1,0.42,0.19-.45,0.12-.27L30,47.84c-0.72-.3-1.44-0.61-2.17-0.89C27.68,47.19,27.58,47.43,27.48,47.67Z"/><path class="cls-1" d="M54,50.52L53.84,50a7.81,7.81,0,0,0-.33-0.84c-0.12-.27-0.24-0.54-0.33-0.81L53,47.89l0.44-.17c0.65-.26,1.29-0.53,1.94-0.8,0.88-.37,1.75-0.74,2.65-1.07l0.44-.16,0.19,0.42c0.24,0.54.47,1.09,0.68,1.66l0.16,0.45-0.44.19q-2.29,1-4.58,1.9Zm0.3-2.05,0.13,0.29,0.19,0.43,3.65-1.52Q58.12,47.31,58,47c-0.73.28-1.45,0.58-2.17,0.89Z"/><path class="cls-1" d="M42.8,57.65a2.64,2.64,0,1,1,.34-5.25l7-4.51-4.71,7.3A2.65,2.65,0,0,1,42.8,57.65Zm0-4.28A1.64,1.64,0,1,0,44.43,55V54.89l2.35-3.65-3.44,2.22-0.2,0A1.73,1.73,0,0,0,42.8,53.38Z"/></svg>