<svg id="Layer_1" data-name="Layer 1" xmlns="http://www.w3.org/2000/svg" viewBox="0 0 84.98 84.98"><defs><style>.cls-1{fill:#fdb515;}.cls-2{fill:#22c1e1;}</style></defs><title>Dashboard Design</title><path class="cls-1" d="M42.49,85A42.49,42.49,0,1,1,85,42.49,42.54,42.54,0,0,1,42.49,85Zm0-83A40.49,40.49,0,1,0,83,42.49,40.53,40.53,0,0,0,42.49,2Z"/><path class="cls-2" d="M61.51,63.44H23.89a3.07,3.07,0,0,1-3.06-3.06V27.88a3.07,3.07,0,0,1,3.06-3.06H61.51a3.07,3.07,0,0,1,3.06,3.06V60.37A3.07,3.07,0,0,1,61.51,63.44ZM23.89,25.82a2.07,2.07,0,0,0-2.06,2.06V60.37a2.07,2.07,0,0,0,2.06,2.06H61.51a2.07,2.07,0,0,0,2.06-2.06V27.88a2.07,2.07,0,0,0-2.06-2.06H23.89ZM62,60.87H23.39V31.66H62V60.87Zm-37.62-1H61V32.66H24.39V59.87ZM59.8,30.95A2.21,2.21,0,1,1,62,28.74,2.21,2.21,0,0,1,59.8,30.95Zm0-3.42A1.21,1.21,0,1,0,61,28.74,1.21,1.21,0,0,0,59.8,27.53Zm-4.7,3.42a2.21,2.21,0,1,1,2.21-2.21A2.21,2.21,0,0,1,55.1,30.95Zm0-3.42a1.21,1.21,0,1,0,1.21,1.21A1.21,1.21,0,0,0,55.1,27.53Zm-4.7,3.42a2.21,2.21,0,1,1,2.21-2.21A2.21,2.21,0,0,1,50.39,30.95Zm0-3.42a1.21,1.21,0,1,0,1.21,1.21A1.21,1.21,0,0,0,50.39,27.53Z"/><path class="cls-2" d="M41.29,42.24V41.69c0-1,0-2,0-3,0-.66,0-1.31,0-2V36.31l0.43-.06a7.75,7.75,0,0,1,1.91,0L44.1,36.3v0.44q0,2.06,0,4.12v1.34l-0.52,0a13.69,13.69,0,0,0-1.73,0Zm1-5c0,0.5,0,1,0,1.51,0,0.82,0,1.64,0,2.45H43.1v-0.3q0-1.83,0-3.66A6.71,6.71,0,0,0,42.31,37.2Z"/><path class="cls-2" d="M37,43.56l-0.18-.45c-0.27-.68-0.55-1.36-0.83-2-0.35-.85-0.71-1.69-1-2.55l-0.17-.45,0.44-.19c0.55-.24,1.09-0.47,1.65-0.68L37.29,37l0.19,0.44c0.66,1.52,1.29,3.06,1.91,4.6l0.21,0.51-0.53.15a7.53,7.53,0,0,0-.92.35c-0.24.1-.48,0.21-0.72,0.29ZM36,38.62c0.27,0.69.56,1.38,0.85,2.07,0.22,0.53.44,1.06,0.66,1.59l0.21-.09L38.26,42c-0.5-1.22-1-2.44-1.51-3.65Z"/><path class="cls-2" d="M48.43,43.56L48,43.39c-0.25-.09-0.5-0.2-0.74-0.3s-0.59-.25-0.9-0.36l-0.51-.17,0.2-.5c0.62-1.53,1.25-3.06,1.91-4.58l0.18-.43,0.44,0.15c0.55,0.19,1.08.42,1.61,0.65l0.44,0.19-0.12.47c-0.33.88-.7,1.75-1.06,2.61-0.28.66-.55,1.31-0.81,2ZM47.14,42l0.48,0.2,0.24,0.1c0.21-.51.42-1,0.63-1.53,0.3-.71.59-1.42,0.88-2.13l-0.71-.29C48.14,39.53,47.64,40.75,47.14,42Z"/><path class="cls-2" d="M33.55,46.55l-0.35-.36c-0.64-.65-1.28-1.29-1.92-1.94l-1.53-1.53-0.28-.28,0.21-.33A6.12,6.12,0,0,1,31,40.77l0.36-.31,0.4,0.28c0.51,0.53,1,1.05,1.55,1.57s1.3,1.29,1.92,2l0.36,0.4L35.14,45a8.81,8.81,0,0,0-.85.81l-0.38.39Zm-2.79-4.23L32,43.54l1.58,1.58h0c0.17-.18.35-0.37,0.54-0.55-0.5-.53-1-1-1.54-1.55s-0.84-.83-1.25-1.25A5.83,5.83,0,0,0,30.76,42.32Z"/><path class="cls-2" d="M51.82,46.56l-0.35-.39c-0.39-.43-0.82-0.84-1.24-1.24l-0.37-.35,1.47-1.47q1.18-1.18,2.37-2.36L54,40.47l0.34,0.23a5.38,5.38,0,0,1,1.39,1.39l0.23,0.34-0.29.29-2.14,2.15Zm-0.53-2,0.56,0.55,1-1,1.83-1.84a4.58,4.58,0,0,0-.55-0.55l-2.05,2Z"/><path class="cls-2" d="M31.59,50.61l-2-.83-3.1-1.29L26,48.3l0.17-.45c0.21-.56.44-1.11,0.68-1.65l0.19-.43,0.44,0.16c0.89,0.33,1.77.7,2.65,1.07,0.64,0.27,1.28.54,1.93,0.79L32.54,48l-0.15.45c-0.09.27-.21,0.54-0.32,0.8a6.48,6.48,0,0,0-.33.84Zm-4.27-2.85L30,48.85l1,0.42,0.19-.45,0.12-.27-1.49-.62c-0.72-.3-1.44-0.61-2.17-0.89C27.51,47.27,27.41,47.51,27.31,47.75Z"/><path class="cls-2" d="M53.83,50.6l-0.16-.52a7.81,7.81,0,0,0-.33-0.84C53.22,49,53.11,48.7,53,48.42L52.86,48l0.44-.17c0.65-.26,1.29-0.53,1.94-0.8,0.88-.37,1.75-0.74,2.65-1.07l0.44-.16,0.19,0.42c0.24,0.54.47,1.09,0.68,1.66l0.16,0.45-0.44.19q-2.29,1-4.58,1.9Zm0.3-2.05,0.13,0.29,0.19,0.43,3.65-1.52Q58,47.39,57.8,47c-0.73.28-1.45,0.58-2.17,0.89Z"/><path class="cls-2" d="M42.63,57.74A2.64,2.64,0,1,1,43,52.49L50,48l-4.71,7.3A2.65,2.65,0,0,1,42.63,57.74Zm0-4.28a1.64,1.64,0,1,0,1.64,1.66V55l2.35-3.65-3.44,2.22-0.2,0A1.73,1.73,0,0,0,42.63,53.46Z"/></svg>