<svg id="Layer_1" data-name="Layer 1" xmlns="http://www.w3.org/2000/svg" viewBox="0 0 471.95 234.67"><defs><style>.cls-1,.cls-2{fill:none;stroke-miterlimit:10;}.cls-1{stroke:#999;stroke-width:3px;}.cls-2{stroke:#231f20;stroke-width:5px;}.cls-3{opacity:0.5;}.cls-4{fill:#00a14b;}.cls-5{fill:#fdfdfe;}.cls-6{fill:#ed1c24;}.cls-7{fill:#fff;}</style></defs><title>Dashboard Design</title><polygon class="cls-1" points="85.03 8.27 10.97 147.5 103.37 147.5 103.37 84.15 197.37 83.75 197.37 8.5 85.03 8.27"/><polygon class="cls-1" points="279.37 8.62 385.37 7.82 385.37 26.5 395.44 26.5 403.42 19.52 452.94 78.32 466.69 76.34 459.75 87.5 362.89 87.5 362.9 85.43 328.37 85.5 328.37 88.5 319.05 88.5 319.07 85.35 279.37 85.5 279.37 8.62"/><polygon class="cls-1" points="197.37 8.5 197.37 85.5 194.37 85.5 194.37 148.5 196.37 148.5 196.37 226.5 279.37 226.5 279.37 149.5 249.37 149.5 249.37 85.5 279.37 85.5 279.37 8.62 197.37 8.5"/><polygon class="cls-1" points="10.97 147.5 4.63 158.71 20.44 158.78 74.03 226.2 196.08 226.78 196.16 148.5 104.59 148.5 103.38 147.5 10.97 147.5"/><polygon class="cls-1" points="459.71 87.5 362.89 87.5 362.57 150.08 325.37 149.81 325.37 88.5 319.05 88.5 319.08 149.84 279.37 149.5 279.37 226.5 379.37 226.5 459.71 87.5"/><path class="cls-2" d="M418.67,34.07l-49.28,0c-10.35,0-8.9,11.08-8.9,11.08v2.14c0,11.28-9,11.17-9,11.17L75.68,58.27A13.41,13.41,0,0,0,62.26,71.67l0,82a13.41,13.41,0,0,0,13.41,13.42l294.8,0.18a13.41,13.41,0,0,0,13.42-13.41l0-58.13s0-10.69,8.81-10.69c4.06,0,25.45.09,34.05,0.09,3.39,0,6.81-4.3,6.81-10.93,0-6.86,0-15.42,0-21.22"/><g class="cls-3"><path class="cls-4" d="M392.09,131a8.81,8.81,0,1,1-8.8-8.81,8.81,8.81,0,0,1,8.8,8.81"/><path class="cls-5" d="M381.3,126.61l-3.1,9.29,0.46,0.16,3.1-9.29Z"/><path class="cls-5" d="M384.59,128.36l0.27-.81a3.51,3.51,0,0,0-2.79-.62l-1.4,4a6.07,6.07,0,0,1,2.47-.29,0.26,0.26,0,0,0,.16.29,5.23,5.23,0,0,0,5.73-2.32C386.46,129.38,385.15,128.79,384.59,128.36Z"/></g><g class="cls-3"><path class="cls-4" d="M247.63,167.24a8.81,8.81,0,1,1-8.8-8.81,8.81,8.81,0,0,1,8.8,8.81"/><path class="cls-5" d="M236.84,162.88l-3.1,9.29,0.46,0.16,3.1-9.29Z"/><path class="cls-5" d="M240.13,164.63l0.27-.81a3.51,3.51,0,0,0-2.79-.62l-1.4,4a6.07,6.07,0,0,1,2.47-.29,0.26,0.26,0,0,0,.16.29,5.23,5.23,0,0,0,5.73-2.32C242,165.65,240.69,165.06,240.13,164.63Z"/></g><g class="cls-3"><path class="cls-4" d="M86,167.52a8.81,8.81,0,1,1-8.8-8.81,8.81,8.81,0,0,1,8.8,8.81"/><path class="cls-5" d="M75.23,163.17l-3.1,9.29,0.46,0.16,3.1-9.29Z"/><path class="cls-5" d="M78.52,164.91l0.27-.81a3.51,3.51,0,0,0-2.79-.62l-1.4,4a6.07,6.07,0,0,1,2.47-.29,0.26,0.26,0,0,0,.16.29A5.23,5.23,0,0,0,83,165.18C80.39,165.93,79.08,165.34,78.52,164.91Z"/></g><g class="cls-3"><path class="cls-6" d="M301.73,58.67a8.81,8.81,0,1,1-8.8-8.81,8.81,8.81,0,0,1,8.8,8.81"/><path class="cls-7" d="M290.94,54.31l-3.1,9.29,0.46,0.16,3.1-9.29Z"/><path class="cls-7" d="M294.23,56.06l0.27-.81a3.51,3.51,0,0,0-2.79-.62l-1.4,4a6.07,6.07,0,0,1,2.47-.29,0.26,0.26,0,0,0,.16.29,5.23,5.23,0,0,0,5.73-2.32C296.1,57.08,294.79,56.49,294.23,56.06Z"/></g><g class="cls-3"><path class="cls-6" d="M133.35,58.56a8.81,8.81,0,1,1-8.8-8.81,8.81,8.81,0,0,1,8.8,8.81"/><path class="cls-7" d="M122.56,54.21l-3.1,9.29,0.46,0.16,3.1-9.29Z"/><path class="cls-7" d="M125.85,56l0.27-.81a3.51,3.51,0,0,0-2.79-.62l-1.4,4a6.07,6.07,0,0,1,2.47-.29,0.26,0.26,0,0,0,.16.29,5.23,5.23,0,0,0,5.73-2.32C127.72,57,126.41,56.39,125.85,56Z"/></g><line class="cls-2" x1="426.76" y1="53.26" x2="440.32" y2="53.27"/><line class="cls-2" x1="418.66" y1="28" x2="418.66" y2="40.69"/></svg>