<svg id="Layer_1" data-name="Layer 1" xmlns="http://www.w3.org/2000/svg" xmlns:xlink="http://www.w3.org/1999/xlink" viewBox="0 0 11.25 11.25"><defs><style>.cls-1,.cls-7{fill:none;}.cls-2{clip-path:url(#clip-path);}.cls-3{fill:#f4f4f4;}.cls-4{font-size:8px;fill:#545454;font-family:Lato;font-style:italic;}.cls-5{letter-spacing:3px;}.cls-6{letter-spacing:1px;}.cls-7{stroke:#9d9d9d;stroke-miterlimit:10;stroke-width:0.75px;}</style><clipPath id="clip-path"><rect class="cls-1" x="-163.06" y="-65.1" width="252.09" height="36.57"/></clipPath></defs><title>Dashboard Design</title><g class="cls-2"><rect class="cls-3" x="-163.06" y="-65.1" width="252.01" height="102.29"/><text class="cls-4" transform="translate(-61.48 -29.46)">Lorem<tspan class="cls-5" x="20.82" y="0"> </tspan><tspan x="25.74" y="0">ipsum</tspan><tspan class="cls-5" x="45.54" y="0"> </tspan><tspan x="50.46" y="0">dolor</tspan><tspan class="cls-5" x="67.53" y="0"> </tspan><tspan x="72.46" y="0">sit</tspan><tspan class="cls-5" x="80.33" y="0"> </tspan><tspan x="85.25" y="0">amet,</tspan><tspan class="cls-5" x="104.1" y="0"> </tspan><tspan x="109.02" y="0">per</tspan><tspan class="cls-5" x="119.81" y="0"> </tspan><tspan x="124.74" y="0">iudico </tspan><tspan x="0" y="9.6">copiosae</tspan><tspan x="29.12" y="9.6"> </tspan><tspan x="31.81" y="9.6">et,</tspan><tspan x="40.27" y="9.6"> </tspan><tspan x="42.96" y="9.6">nullam</tspan><tspan x="65.42" y="9.6"> </tspan><tspan x="68.11" y="9.6">putant</tspan><tspan x="90.58" y="9.6"> </tspan><tspan x="93.26" y="9.6">eripuit</tspan><tspan x="114.81" y="9.6"> </tspan><tspan x="117.5" y="9.6">nam</tspan><tspan x="132.12" y="9.6"> </tspan><tspan x="134.81" y="9.6">eu, </tspan><tspan x="0" y="19.2">ex</tspan><tspan class="cls-6" x="7.54" y="19.2"> </tspan><tspan x="10.73" y="19.2">regione</tspan><tspan class="cls-6" x="35.23" y="19.2"> </tspan><tspan x="38.42" y="19.2">quaestio</tspan><tspan class="cls-6" x="66.6" y="19.2"> </tspan><tspan x="69.79" y="19.2">omittantur</tspan><tspan class="cls-6" x="105.44" y="19.2"> </tspan><tspan x="108.63" y="19.2">qui.</tspan><tspan class="cls-6" x="120.67" y="19.2"> </tspan><tspan x="123.86" y="19.2">Lorem </tspan><tspan x="0" y="28.8">ipsum</tspan><tspan x="19.8" y="28.8"> </tspan><tspan x="21.62" y="28.8">dolor</tspan><tspan x="38.7" y="28.8"> </tspan><tspan x="40.52" y="28.8">sit</tspan><tspan x="48.4" y="28.8"> </tspan><tspan x="50.22" y="28.8">amet,</tspan><tspan x="69.06" y="28.8"> </tspan><tspan x="70.89" y="28.8">per</tspan><tspan x="81.68" y="28.8"> </tspan><tspan x="83.5" y="28.8">iudico</tspan><tspan x="103.44" y="28.8"> </tspan><tspan x="105.26" y="28.8">copiosae</tspan><tspan x="134.39" y="28.8"> </tspan><tspan x="136.21" y="28.8">et, </tspan><tspan x="0" y="38.4">nullam</tspan><tspan class="cls-6" x="22.46" y="38.4"> </tspan><tspan x="26.07" y="38.4">putant</tspan><tspan class="cls-6" x="48.54" y="38.4"> </tspan><tspan x="52.15" y="38.4">eripuit</tspan><tspan class="cls-6" x="73.7" y="38.4"> </tspan><tspan x="77.31" y="38.4">nam</tspan><tspan class="cls-6" x="91.93" y="38.4"> </tspan><tspan x="95.55" y="38.4">eu,</tspan><tspan class="cls-6" x="105.41" y="38.4"> </tspan><tspan x="109.02" y="38.4">ex</tspan><tspan class="cls-6" x="116.56" y="38.4"> </tspan><tspan x="120.17" y="38.4">regione </tspan><tspan x="0" y="48">quaestio omittantur qui. Lorem ipsum dolor</tspan></text></g><circle class="cls-7" cx="5.63" cy="5.63" r="5.25"/><polyline class="cls-7" points="5.55 2.29 5.55 5.63 7.13 7.19"/></svg>