<svg id="Layer_1" data-name="Layer 1" xmlns="http://www.w3.org/2000/svg" xmlns:xlink="http://www.w3.org/1999/xlink" viewBox="0 0 11.23 11.23"><defs><style>.cls-1{fill:none;}.cls-2{clip-path:url(#clip-path);}.cls-3{fill:#f4f4f4;}.cls-4{fill:#9d9d9d;stroke:#9d9d9d;stroke-miterlimit:10;stroke-width:0.3px;}</style><clipPath id="clip-path"><rect class="cls-1" x="-75.96" y="-65.84" width="252.09" height="36.57"/></clipPath></defs><title>Dashboard Design</title><g class="cls-2"><rect class="cls-3" x="-75.96" y="-65.84" width="252.01" height="102.29"/><image width="2101" height="2101" transform="translate(-69.3 -59.09) scale(0.04)" xlink:href="../../../../../../../Pictures/tezzzz.jpg"/></g><path class="cls-4" d="M7.85,5.77a3.26,3.26,0,1,0-4.48,0A4.27,4.27,0,0,0,.15,10v1H11.08V10A4.27,4.27,0,0,0,7.85,5.77Zm2.9,5H0.48V10A3.91,3.91,0,0,1,1.4,7.4,4.63,4.63,0,0,1,3.76,6l0.32-.09L3.82,5.72a2.93,2.93,0,1,1,3.59,0l-0.26.21L7.47,6A4.63,4.63,0,0,1,9.83,7.4,3.91,3.91,0,0,1,10.75,10v0.72Z"/></svg>