<svg id="Layer_1" data-name="Layer 1" xmlns="http://www.w3.org/2000/svg" viewBox="0 0 86.71 87.25"><defs><style>.cls-1{fill:#fdb515;}.cls-2{fill:#22c1e1;}</style></defs><title>Dashboard Design</title><path class="cls-1" d="M43.24,85.94A42.49,42.49,0,1,1,85.73,43.45,42.54,42.54,0,0,1,43.24,85.94Zm0-83A40.49,40.49,0,1,0,83.73,43.45,40.54,40.54,0,0,0,43.24,3Z"/><path class="cls-2" d="M31.5,57.59H29.37a0.27,0.27,0,0,1-.27-0.27V54.65a0.27,0.27,0,0,1,.27-0.27H31.5a0.27,0.27,0,0,1,.27.27v2.67A0.27,0.27,0,0,1,31.5,57.59Zm-1.87-.53h1.6V54.92h-1.6v2.13Z"/><path class="cls-2" d="M24,36.25h-1.6A0.27,0.27,0,0,1,22.17,36V33.85a0.27,0.27,0,0,1,.27-0.27H24a0.27,0.27,0,0,1,.27.27V36A0.27,0.27,0,0,1,24,36.25Zm-1.33-.53h1.07v-1.6H22.7v1.6Z"/><path class="cls-2" d="M24,40h-1.6a0.27,0.27,0,0,1-.27-0.27V37.58a0.27,0.27,0,0,1,.27-0.27H24a0.27,0.27,0,0,1,.27.27v2.13A0.27,0.27,0,0,1,24,40Zm-1.33-.53h1.07v-1.6H22.7v1.6Z"/><path class="cls-2" d="M24,43.71h-1.6a0.27,0.27,0,0,1-.27-0.27V41.31A0.27,0.27,0,0,1,22.43,41H24a0.27,0.27,0,0,1,.27.27v2.13A0.27,0.27,0,0,1,24,43.71Zm-1.33-.53h1.07v-1.6H22.7v1.6Z"/><path class="cls-2" d="M24,47.45h-1.6a0.27,0.27,0,0,1-.27-0.27V45a0.27,0.27,0,0,1,.27-0.27H24a0.27,0.27,0,0,1,.27.27v2.13A0.27,0.27,0,0,1,24,47.45Zm-1.33-.53h1.07v-1.6H22.7v1.6Z"/><path class="cls-2" d="M24,51.18h-1.6a0.27,0.27,0,0,1-.27-0.27V48.78a0.27,0.27,0,0,1,.27-0.27H24a0.27,0.27,0,0,1,.27.27v2.13A0.27,0.27,0,0,1,24,51.18Zm-1.33-.53h1.07V49H22.7v1.6Z"/><path class="cls-2" d="M24,54.92h-1.6a0.27,0.27,0,0,1-.27-0.27V52.52a0.27,0.27,0,0,1,.27-0.27H24a0.27,0.27,0,0,1,.27.27v2.13A0.27,0.27,0,0,1,24,54.92Zm-1.33-.53h1.07v-1.6H22.7v1.6Z"/><path class="cls-2" d="M58.44,35.18H56.31a0.27,0.27,0,0,1,0-.53h2.13A0.27,0.27,0,0,1,58.44,35.18Z"/><path class="cls-2" d="M65.91,59.72H20.57A0.53,0.53,0,0,1,20,59.19V32a0.53,0.53,0,0,1,.53-0.53H65.91a0.53,0.53,0,0,1,.53.53V59.19A0.53,0.53,0,0,1,65.91,59.72ZM21.1,58.65H65.38V32.51H21.1V58.65Z"/><path class="cls-2" d="M65.91,32.51A0.53,0.53,0,0,1,65.38,32V29.31a1,1,0,0,0-1.1-1.07H22.34a1.16,1.16,0,0,0-1.24,1.07V32A0.53,0.53,0,1,1,20,32V29.31a2.23,2.23,0,0,1,2.31-2.13H64.27a2.11,2.11,0,0,1,2.17,2.13V32A0.53,0.53,0,0,1,65.91,32.51Z"/><path class="cls-2" d="M33.37,37.31H29.1a0.27,0.27,0,0,1,0-.53h4.27A0.27,0.27,0,1,1,33.37,37.31Z"/><path class="cls-2" d="M36.57,57.05H32.84a0.27,0.27,0,0,1,0-.53h3.73A0.27,0.27,0,1,1,36.57,57.05Z"/><path class="cls-2" d="M38.17,55.45H32.84a0.27,0.27,0,0,1,0-.53h5.33A0.27,0.27,0,1,1,38.17,55.45Z"/><path class="cls-2" d="M42.17,57.59H40a0.27,0.27,0,0,1-.27-0.27V54.65A0.27,0.27,0,0,1,40,54.38h2.13a0.27,0.27,0,0,1,.27.27v2.67A0.27,0.27,0,0,1,42.17,57.59Zm-1.87-.53h1.6V54.92h-1.6v2.13Z"/><path class="cls-2" d="M47.24,57.05H43.51a0.27,0.27,0,1,1,0-.53h3.73A0.27,0.27,0,0,1,47.24,57.05Z"/><path class="cls-2" d="M48.84,55.45H43.51a0.27,0.27,0,1,1,0-.53h5.33A0.27,0.27,0,1,1,48.84,55.45Z"/><path class="cls-2" d="M53.91,57.59H51.78a0.27,0.27,0,0,1-.27-0.27V54.65a0.27,0.27,0,0,1,.27-0.27h2.13a0.27,0.27,0,0,1,.27.27v2.67A0.27,0.27,0,0,1,53.91,57.59ZM52,57.05h1.6V54.92H52v2.13Z"/><path class="cls-2" d="M59,57.05H55.24a0.27,0.27,0,1,1,0-.53H59A0.27,0.27,0,1,1,59,57.05Z"/><path class="cls-2" d="M60.58,55.45H55.24a0.27,0.27,0,1,1,0-.53h5.33A0.27,0.27,0,1,1,60.58,55.45Z"/><path class="cls-2" d="M35,35.71H29.1a0.53,0.53,0,0,1,0-1.07H35A0.53,0.53,0,0,1,35,35.71Z"/><circle class="cls-2" cx="23.51" cy="29.86" r="0.68"/><circle class="cls-2" cx="25.7" cy="29.86" r="0.68"/><circle class="cls-2" cx="27.89" cy="29.86" r="0.68"/><circle class="cls-2" cx="55.11" cy="35.05" r="0.53"/><path class="cls-2" d="M49.38,38.38H47.24a0.27,0.27,0,1,1,0-.53h2.13A0.27,0.27,0,1,1,49.38,38.38Z"/><circle class="cls-2" cx="46.04" cy="38.25" r="0.53"/><path class="cls-2" d="M56.84,47.45H54.71a0.27,0.27,0,0,1,0-.53h2.13A0.27,0.27,0,0,1,56.84,47.45Z"/><circle class="cls-2" cx="53.51" cy="47.32" r="0.53"/><path class="cls-2" d="M41.37,42.65H39.24a0.27,0.27,0,0,1,0-.53h2.13A0.27,0.27,0,1,1,41.37,42.65Z"/><circle class="cls-2" cx="38.04" cy="42.51" r="0.53"/><path class="cls-2" d="M46.17,51.18H44a0.27,0.27,0,0,1,0-.53h2.13A0.27,0.27,0,0,1,46.17,51.18Z"/><circle class="cls-2" cx="42.84" cy="51.05" r="0.53"/><path class="cls-2" d="M25.64,59.45a0.27,0.27,0,0,1-.27-0.27V32.51a0.27,0.27,0,0,1,.53,0V59.19A0.27,0.27,0,0,1,25.64,59.45Z"/><path class="cls-2" d="M51.19,45.82a0.27,0.27,0,0,1-.24-0.39l3-5.93a0.27,0.27,0,0,1,.48.24l-3,5.93A0.27,0.27,0,0,1,51.19,45.82Z"/><path class="cls-2" d="M49.26,46.07A0.27,0.27,0,0,1,49,46l-2.54-3.24a0.27,0.27,0,0,1,.42-0.33l2.54,3.24a0.27,0.27,0,0,1,0,.37A0.26,0.26,0,0,1,49.26,46.07Z"/><path class="cls-2" d="M42.73,47.31l-0.11,0a0.27,0.27,0,0,1-.13-0.36l2.14-4.46a0.27,0.27,0,0,1,.48.23L43,47.16A0.27,0.27,0,0,1,42.73,47.31Z"/><path class="cls-2" d="M40.73,47.75a0.27,0.27,0,0,1-.17-0.06l-1.5-1.25A0.27,0.27,0,1,1,39.41,46l1.5,1.25a0.27,0.27,0,0,1,0,.38A0.27,0.27,0,0,1,40.73,47.75Z"/><path class="cls-2" d="M32.84,50a0.27,0.27,0,0,1-.18-0.47l4.11-3.66a0.27,0.27,0,1,1,.35.4L33,50A0.27,0.27,0,0,1,32.84,50Z"/><path class="cls-2" d="M45.78,43.17a1.74,1.74,0,1,1,1.74-1.74A1.74,1.74,0,0,1,45.78,43.17Zm0-3A1.21,1.21,0,1,0,47,41.43,1.21,1.21,0,0,0,45.78,40.22Z"/><path class="cls-2" d="M38.14,47a1.74,1.74,0,1,1,1.74-1.74A1.74,1.74,0,0,1,38.14,47Zm0-3a1.21,1.21,0,1,0,1.21,1.21A1.21,1.21,0,0,0,38.14,44Z"/><path class="cls-2" d="M50.36,48.52a1.74,1.74,0,1,1,1.74-1.74A1.74,1.74,0,0,1,50.36,48.52Zm0-3a1.21,1.21,0,1,0,1.21,1.21A1.21,1.21,0,0,0,50.36,45.57Z"/><path class="cls-2" d="M42,50A1.74,1.74,0,1,1,43.7,48.3,1.74,1.74,0,0,1,42,50Zm0-3a1.21,1.21,0,1,0,1.21,1.21A1.21,1.21,0,0,0,42,47.09Z"/><path class="cls-2" d="M54.94,40.12a1.74,1.74,0,1,1,1.74-1.74A1.74,1.74,0,0,1,54.94,40.12Zm0-3a1.21,1.21,0,1,0,1.21,1.21A1.21,1.21,0,0,0,54.94,37.17Z"/></svg>