<svg id="Layer_1" data-name="Layer 1" xmlns="http://www.w3.org/2000/svg" viewBox="0 0 84.98 84.98"><defs><style>.cls-1{fill:#215a99;}</style></defs><title>Dashboard Design</title><path class="cls-1" d="M42.49,84.71a42,42,0,1,1,42-42A42,42,0,0,1,42.49,84.71Zm0-83a41,41,0,1,0,41,41A41,41,0,0,0,42.49,1.73Z"/><path class="cls-1" d="M30.75,56.86H28.62a0.27,0.27,0,0,1-.27-0.27V53.93a0.27,0.27,0,0,1,.27-0.27h2.13a0.27,0.27,0,0,1,.27.27v2.67A0.27,0.27,0,0,1,30.75,56.86Zm-1.87-.53h1.6V54.19h-1.6v2.13Z"/><path class="cls-1" d="M23.28,35.52h-1.6a0.27,0.27,0,0,1-.27-0.27V33.12a0.27,0.27,0,0,1,.27-0.27h1.6a0.27,0.27,0,0,1,.27.27v2.13A0.27,0.27,0,0,1,23.28,35.52ZM22,35H23v-1.6H22V35Z"/><path class="cls-1" d="M23.28,39.26h-1.6A0.27,0.27,0,0,1,21.42,39V36.86a0.27,0.27,0,0,1,.27-0.27h1.6a0.27,0.27,0,0,1,.27.27V39A0.27,0.27,0,0,1,23.28,39.26ZM22,38.72H23v-1.6H22v1.6Z"/><path class="cls-1" d="M23.28,43h-1.6a0.27,0.27,0,0,1-.27-0.27V40.59a0.27,0.27,0,0,1,.27-0.27h1.6a0.27,0.27,0,0,1,.27.27v2.13A0.27,0.27,0,0,1,23.28,43ZM22,42.46H23v-1.6H22v1.6Z"/><path class="cls-1" d="M23.28,46.72h-1.6a0.27,0.27,0,0,1-.27-0.27V44.32a0.27,0.27,0,0,1,.27-0.27h1.6a0.27,0.27,0,0,1,.27.27v2.13A0.27,0.27,0,0,1,23.28,46.72ZM22,46.19H23v-1.6H22v1.6Z"/><path class="cls-1" d="M23.28,50.46h-1.6a0.27,0.27,0,0,1-.27-0.27V48.06a0.27,0.27,0,0,1,.27-0.27h1.6a0.27,0.27,0,0,1,.27.27v2.13A0.27,0.27,0,0,1,23.28,50.46ZM22,49.93H23v-1.6H22v1.6Z"/><path class="cls-1" d="M23.28,54.19h-1.6a0.27,0.27,0,0,1-.27-0.27V51.79a0.27,0.27,0,0,1,.27-0.27h1.6a0.27,0.27,0,0,1,.27.27v2.13A0.27,0.27,0,0,1,23.28,54.19ZM22,53.66H23v-1.6H22v1.6Z"/><path class="cls-1" d="M57.69,34.45H55.56a0.27,0.27,0,0,1,0-.53h2.13A0.27,0.27,0,0,1,57.69,34.45Z"/><path class="cls-1" d="M65.16,59H19.82a0.53,0.53,0,0,1-.53-0.53V31.25a0.53,0.53,0,0,1,.53-0.53H65.16a0.53,0.53,0,0,1,.53.53V58.46A0.53,0.53,0,0,1,65.16,59ZM20.35,57.93H64.63V31.79H20.35V57.93Z"/><path class="cls-1" d="M65.16,31.79a0.53,0.53,0,0,1-.53-0.53V28.59a1,1,0,0,0-1.1-1.07H21.59a1.16,1.16,0,0,0-1.24,1.07v2.67a0.53,0.53,0,0,1-1.07,0V28.59a2.23,2.23,0,0,1,2.31-2.13H63.52a2.11,2.11,0,0,1,2.17,2.13v2.67A0.53,0.53,0,0,1,65.16,31.79Z"/><path class="cls-1" d="M32.62,36.59H28.35a0.27,0.27,0,1,1,0-.53h4.27A0.27,0.27,0,1,1,32.62,36.59Z"/><path class="cls-1" d="M35.82,56.33H32.09a0.27,0.27,0,1,1,0-.53h3.73A0.27,0.27,0,0,1,35.82,56.33Z"/><path class="cls-1" d="M37.42,54.73H32.09a0.27,0.27,0,0,1,0-.53h5.33A0.27,0.27,0,0,1,37.42,54.73Z"/><path class="cls-1" d="M41.42,56.86H39.29A0.27,0.27,0,0,1,39,56.59V53.93a0.27,0.27,0,0,1,.27-0.27h2.13a0.27,0.27,0,0,1,.27.27v2.67A0.27,0.27,0,0,1,41.42,56.86Zm-1.87-.53h1.6V54.19h-1.6v2.13Z"/><path class="cls-1" d="M46.49,56.33H42.76a0.27,0.27,0,1,1,0-.53h3.73A0.27,0.27,0,1,1,46.49,56.33Z"/><path class="cls-1" d="M48.09,54.73H42.76a0.27,0.27,0,0,1,0-.53h5.33A0.27,0.27,0,0,1,48.09,54.73Z"/><path class="cls-1" d="M53.16,56.86H51a0.27,0.27,0,0,1-.27-0.27V53.93A0.27,0.27,0,0,1,51,53.66h2.13a0.27,0.27,0,0,1,.27.27v2.67A0.27,0.27,0,0,1,53.16,56.86Zm-1.87-.53h1.6V54.19h-1.6v2.13Z"/><path class="cls-1" d="M58.23,56.33H54.49a0.27,0.27,0,0,1,0-.53h3.73A0.27,0.27,0,1,1,58.23,56.33Z"/><path class="cls-1" d="M59.83,54.73H54.49a0.27,0.27,0,0,1,0-.53h5.33A0.27,0.27,0,0,1,59.83,54.73Z"/><path class="cls-1" d="M34.22,35H28.35a0.53,0.53,0,1,1,0-1.07h5.87A0.53,0.53,0,0,1,34.22,35Z"/><circle class="cls-1" cx="22.76" cy="29.13" r="0.68"/><circle class="cls-1" cx="24.95" cy="29.13" r="0.68"/><circle class="cls-1" cx="27.14" cy="29.13" r="0.68"/><circle class="cls-1" cx="54.36" cy="34.32" r="0.53"/><path class="cls-1" d="M48.62,37.66H46.49a0.27,0.27,0,1,1,0-.53h2.13A0.27,0.27,0,1,1,48.62,37.66Z"/><circle class="cls-1" cx="45.29" cy="37.52" r="0.53"/><path class="cls-1" d="M56.09,46.72H54a0.27,0.27,0,1,1,0-.53h2.13A0.27,0.27,0,0,1,56.09,46.72Z"/><circle class="cls-1" cx="52.76" cy="46.59" r="0.53"/><path class="cls-1" d="M40.62,41.92H38.49a0.27,0.27,0,0,1,0-.53h2.13A0.27,0.27,0,1,1,40.62,41.92Z"/><circle class="cls-1" cx="37.29" cy="41.79" r="0.53"/><path class="cls-1" d="M45.42,50.46H43.29a0.27,0.27,0,0,1,0-.53h2.13A0.27,0.27,0,0,1,45.42,50.46Z"/><circle class="cls-1" cx="42.09" cy="50.33" r="0.53"/><path class="cls-1" d="M24.88,58.73a0.27,0.27,0,0,1-.27-0.27V31.79a0.27,0.27,0,1,1,.53,0V58.46A0.27,0.27,0,0,1,24.88,58.73Z"/><path class="cls-1" d="M50.44,45.1a0.27,0.27,0,0,1-.24-0.39l3-5.93a0.27,0.27,0,0,1,.48.24l-3,5.93A0.27,0.27,0,0,1,50.44,45.1Z"/><path class="cls-1" d="M48.51,45.34a0.27,0.27,0,0,1-.21-0.1L45.76,42a0.27,0.27,0,1,1,.42-0.33l2.54,3.24a0.27,0.27,0,0,1,0,.37A0.26,0.26,0,0,1,48.51,45.34Z"/><path class="cls-1" d="M42,46.59l-0.11,0a0.27,0.27,0,0,1-.13-0.36l2.14-4.46a0.27,0.27,0,1,1,.48.23l-2.14,4.46A0.27,0.27,0,0,1,42,46.59Z"/><path class="cls-1" d="M40,47A0.27,0.27,0,0,1,39.81,47l-1.5-1.25a0.27,0.27,0,1,1,.34-0.41l1.5,1.25a0.27,0.27,0,0,1,0,.38A0.27,0.27,0,0,1,40,47Z"/><path class="cls-1" d="M32.09,49.32a0.27,0.27,0,0,1-.18-0.47L36,45.19a0.27,0.27,0,1,1,.35.4l-4.11,3.66A0.27,0.27,0,0,1,32.09,49.32Z"/><path class="cls-1" d="M45,42.45a1.74,1.74,0,1,1,1.74-1.74A1.74,1.74,0,0,1,45,42.45Zm0-3a1.21,1.21,0,1,0,1.21,1.21A1.21,1.21,0,0,0,45,39.5Z"/><path class="cls-1" d="M37.39,46.27a1.74,1.74,0,1,1,1.74-1.74A1.74,1.74,0,0,1,37.39,46.27Zm0-3a1.21,1.21,0,1,0,1.21,1.21A1.21,1.21,0,0,0,37.39,43.31Z"/><path class="cls-1" d="M49.61,47.79a1.74,1.74,0,1,1,1.74-1.74A1.74,1.74,0,0,1,49.61,47.79Zm0-3a1.21,1.21,0,1,0,1.21,1.21A1.21,1.21,0,0,0,49.61,44.84Z"/><path class="cls-1" d="M41.21,49.32A1.74,1.74,0,1,1,43,47.58,1.74,1.74,0,0,1,41.21,49.32Zm0-3a1.21,1.21,0,1,0,1.21,1.21A1.21,1.21,0,0,0,41.21,46.37Z"/><path class="cls-1" d="M54.19,39.39a1.74,1.74,0,1,1,1.74-1.74A1.74,1.74,0,0,1,54.19,39.39Zm0-3a1.21,1.21,0,1,0,1.21,1.21A1.21,1.21,0,0,0,54.19,36.44Z"/></svg>