<svg id="Layer_1" data-name="Layer 1" xmlns="http://www.w3.org/2000/svg" viewBox="0 0 20.53 26.94"><defs><style>.cls-1{fill:#444;}</style></defs><title>Dashboard Design</title><path class="cls-1" d="M9.67,18.4a1.47,1.47,0,0,0,.75.64l0.28-.13v-1l-1,.48h0Z"/><path class="cls-1" d="M9.37,17.82l1.34-.62v-1l-1.48.69A2.09,2.09,0,0,0,9.37,17.82Z"/><path class="cls-1" d="M9.35,16.15l1.35-.63v-0.7l-0.33.11A2.08,2.08,0,0,0,9.35,16.15Z"/><path class="cls-1" d="M15.24,18.09a10.22,10.22,0,0,0-1.82.78,17.72,17.72,0,0,1-1.93.86,2.13,2.13,0,0,1-.78.15h0A2.15,2.15,0,0,1,9,18.82a3.17,3.17,0,0,1-.46-2.73,2.21,2.21,0,0,1,.1-0.29,3.35,3.35,0,0,1,.19-0.4,2.48,2.48,0,0,1,1.29-1.21L10.71,14V11.58c-1.13.28-2.21,0.56-2.81,0.74-1.53.48-2.26,2.64-3,4a25.23,25.23,0,0,1-1.64,2.83A10.88,10.88,0,0,1,0,22.32l2.9,4.62h0a13.37,13.37,0,0,0,4.66-1,12.77,12.77,0,0,0,2.13-1.53c0.63-.51,1.34-1.09,2.2-1.68l0.05,0,1.16-.78c1.73-1.13,3.29-2.08,3.92-2.47A2,2,0,0,0,15.24,18.09Z"/><path class="cls-1" d="M20,7.56H12a0.53,0.53,0,0,0-.53.53V18.9c0.51-.2,1.14-0.51,1.59-0.73a9.24,9.24,0,0,1,2-.85l0.31,0a2.84,2.84,0,0,1,2.34,1.76l0.36,0.66-0.64.38c-0.42.25-1.54,0.93-2.89,1.8H20a0.53,0.53,0,0,0,.53-0.53V8.1A0.53,0.53,0,0,0,20,7.56Z"/><path class="cls-1" d="M20.15,1.54a0.49,0.49,0,0,1-.35.3,0.68,0.68,0,0,1-.44-0.15A6.93,6.93,0,0,0,16,.87a6.82,6.82,0,0,0-3.25.77,3.3,3.3,0,0,1-.49.21,0.5,0.5,0,0,1-.36-0.21,0.47,0.47,0,0,1,0-.51A2.4,2.4,0,0,1,12.35.86,8.2,8.2,0,0,1,14.85.07a9.78,9.78,0,0,1,2.07,0,8.16,8.16,0,0,1,2.54.75,1.07,1.07,0,0,1,.69.51,0.36,0.36,0,0,0,0,.09,0.37,0.37,0,0,1,0,.15h0Zm-0.84,1.6a0.44,0.44,0,0,1-.5.29l-0.47-.22a5.22,5.22,0,0,0-2.8-.53,5.05,5.05,0,0,0-2,.56c-0.48.23-.55,0.25-0.75,0.11a0.45,0.45,0,0,1-.06-0.62,5.74,5.74,0,0,1,1.31-.63,6.21,6.21,0,0,1,4.38.21c0.72,0.31.94,0.52,0.86,0.83h0ZM18.46,4.78a0.5,0.5,0,0,1-.33.27,0.83,0.83,0,0,1-.48-0.16,3.51,3.51,0,0,0-3.29,0c-0.48.24-.58,0.24-0.77,0a0.32,0.32,0,0,1-.11-0.28c0-.23.12-0.35,0.55-0.56a4.16,4.16,0,0,1,2-.45,4,4,0,0,1,2,.47,0.69,0.69,0,0,1,.53.49,0.46,0.46,0,0,1,0,.21h0ZM17.67,6.32a0.51,0.51,0,0,1-.3.25,0.58,0.58,0,0,1-.49-0.14A1.42,1.42,0,0,0,16,6.18a1.42,1.42,0,0,0-.91.24,1.76,1.76,0,0,1-.29.15,0.44,0.44,0,0,1-.51-0.35,0.5,0.5,0,0,1,.34-0.52,2.59,2.59,0,0,1,2.76,0,0.5,0.5,0,0,1,.3.62h0Z"/></svg>