<svg id="Layer_1" data-name="Layer 1" xmlns="http://www.w3.org/2000/svg" viewBox="0 0 217.79 17.61"><defs><style>.cls-1{fill:#999;}.cls-2{opacity:0.5;}.cls-3{fill:#fdfdfe;}.cls-4{fill:#00a14b;}</style></defs><title>Dashboard Design</title><rect class="cls-1" y="9.16" width="217.79" height="1.93"/><g class="cls-2"><path class="cls-1" d="M30.81,8.81A8.81,8.81,0,1,1,22,0a8.81,8.81,0,0,1,8.8,8.81"/><path class="cls-3" d="M20,4.46l-3.1,9.29,0.46,0.16,3.1-9.29Z"/><path class="cls-3" d="M23.3,6.2l0.27-.81a3.51,3.51,0,0,0-2.79-.62l-1.4,4a6.07,6.07,0,0,1,2.47-.29A0.26,0.26,0,0,0,22,8.8a5.23,5.23,0,0,0,5.73-2.32C25.17,7.23,23.86,6.64,23.3,6.2Z"/></g><g class="cls-2"><path class="cls-1" d="M116.88,8.81A8.81,8.81,0,1,1,108.08,0a8.81,8.81,0,0,1,8.8,8.81"/><path class="cls-3" d="M106.09,4.46L103,13.75l0.46,0.16,3.1-9.29Z"/><path class="cls-3" d="M109.38,6.2l0.27-.81a3.51,3.51,0,0,0-2.79-.62l-1.4,4a6.07,6.07,0,0,1,2.47-.29,0.26,0.26,0,0,0,.16.29,5.23,5.23,0,0,0,5.73-2.32C111.25,7.23,109.94,6.64,109.38,6.2Z"/></g><g class="cls-2"><path class="cls-4" d="M159.92,8.81A8.81,8.81,0,1,1,151.12,0a8.81,8.81,0,0,1,8.8,8.81"/><path class="cls-3" d="M149.12,4.46L146,13.75l0.46,0.16,3.1-9.29Z"/><path class="cls-3" d="M152.41,6.2l0.27-.81a3.51,3.51,0,0,0-2.79-.62l-1.4,4A6.07,6.07,0,0,1,151,8.5a0.26,0.26,0,0,0,.16.29,5.23,5.23,0,0,0,5.73-2.32C154.28,7.23,153,6.64,152.41,6.2Z"/></g><g class="cls-2"><path class="cls-1" d="M203,8.81A8.81,8.81,0,1,1,194.15,0,8.81,8.81,0,0,1,203,8.81"/><path class="cls-3" d="M192.16,4.46l-3.1,9.29,0.46,0.16,3.1-9.29Z"/><path class="cls-3" d="M195.45,6.2l0.27-.81a3.51,3.51,0,0,0-2.79-.62l-1.4,4A6.07,6.07,0,0,1,194,8.5a0.26,0.26,0,0,0,.16.29,5.23,5.23,0,0,0,5.73-2.32C197.32,7.23,196,6.64,195.45,6.2Z"/></g><g class="cls-2"><path class="cls-4" d="M73.84,8.81A8.81,8.81,0,1,1,65,0a8.81,8.81,0,0,1,8.8,8.81"/><path class="cls-3" d="M63,4.46l-3.1,9.29,0.46,0.16,3.1-9.29Z"/><path class="cls-3" d="M66.34,6.2l0.27-.81a3.51,3.51,0,0,0-2.79-.62l-1.4,4A6.07,6.07,0,0,1,64.9,8.5a0.26,0.26,0,0,0,.16.29,5.23,5.23,0,0,0,5.73-2.32C68.21,7.23,66.9,6.64,66.34,6.2Z"/></g></svg>